<?xml version="1.0" encoding="UTF-8" standalone="no"?>
<!-- Created with Inkscape (http://www.inkscape.org/) -->

<svg
   xmlns:dc="http://purl.org/dc/elements/1.1/"
   xmlns:cc="http://creativecommons.org/ns#"
   xmlns:rdf="http://www.w3.org/1999/02/22-rdf-syntax-ns#"
   xmlns:svg="http://www.w3.org/2000/svg"
   xmlns="http://www.w3.org/2000/svg"
   xmlns:sodipodi="http://sodipodi.sourceforge.net/DTD/sodipodi-0.dtd"
   xmlns:inkscape="http://www.inkscape.org/namespaces/inkscape"
   width="48.25552mm"
   height="37.531921mm"
   viewBox="0 0 48.25552 37.531921"
   version="1.1"
   id="svg8579"
   sodipodi:docname="logo1.svg"
   inkscape:version="0.92.0 r15299">
  <defs
     id="defs8573">
    <clipPath
       clipPathUnits="userSpaceOnUse"
       id="clipPath9140">
      <path
         d="M 0,283.465 H 283.465 V 0 H 0 Z"
         id="path9138"
         inkscape:connector-curvature="0" />
    </clipPath>
  </defs>
  <sodipodi:namedview
     id="base"
     pagecolor="#ffffff"
     bordercolor="#666666"
     borderopacity="1.0"
     inkscape:pageopacity="0.0"
     inkscape:pageshadow="2"
     inkscape:zoom="5.6"
     inkscape:cx="68.515149"
     inkscape:cy="102.51963"
     inkscape:document-units="mm"
     inkscape:current-layer="layer1"
     showgrid="false"
     inkscape:window-width="2880"
     inkscape:window-height="1526"
     inkscape:window-x="-11"
     inkscape:window-y="-11"
     inkscape:window-maximized="1" />
  <metadata
     id="metadata8576">
    <rdf:RDF>
      <cc:Work
         rdf:about="">
        <dc:format>image/svg+xml</dc:format>
        <dc:type
           rdf:resource="http://purl.org/dc/dcmitype/StillImage" />
      </cc:Work>
    </rdf:RDF>
  </metadata>
  <g
     inkscape:label="Calque 1"
     inkscape:groupmode="layer"
     id="layer1"
     transform="translate(-47.687724,-77.150707)">
    <path
       style="fill:#163f6e;fill-opacity:1;fill-rule:nonzero;stroke:none;stroke-width:0.35277778"
       d="m 53.326171,103.21993 c -0.200613,1.63748 -0.401226,3.27495 -0.601839,4.91243 -1.382301,-1.76142 -2.764602,-3.52284 -4.146903,-5.28426 -0.296568,2.40171 -0.593137,4.80343 -0.889705,7.20514 0.316533,-0.0978 0.996573,0.2153 1.037401,-0.19419 0.189716,-1.54335 0.379433,-3.0867 0.569149,-4.63005 1.382301,1.76448 2.764602,3.52895 4.146903,5.29343 0.297979,-2.43417 0.595959,-4.86833 0.893938,-7.3025 -0.336315,0 -0.672629,0 -1.008944,0 z"
       id="path9830" />
    <path
       style="fill:#163f6e;fill-opacity:1;fill-rule:nonzero;stroke:none;stroke-width:1.33333337"
       d="M 41.945312 97.978516 C 36.382729 97.858662 30.694938 100.76735 28.671875 106.19922 C 25.91601 112.88721 28.873509 121.92882 36.164062 124.15039 C 43.115169 126.60111 51.795436 122.94325 53.908203 115.65039 C 55.421488 110.91801 54.736673 105.11658 51.003906 101.57422 C 48.575669 99.213767 45.282863 98.050428 41.945312 97.978516 z M 41.449219 101.55664 C 46.139651 101.34087 50.729564 104.97316 50.763672 109.87695 C 51.026954 112.91925 50.174467 116.11415 47.976562 118.31641 C 43.408867 123.58514 33.465792 121.511 31.923828 114.51562 C 30.10665 108.75653 34.266133 101.90131 40.511719 101.65039 C 40.82399 101.60104 41.136523 101.57103 41.449219 101.55664 z "
       transform="matrix(0.26458333,0,0,0.26458333,47.687724,77.150707)"
       id="path9828" />
    <path
       style="fill:#163f6e;fill-opacity:1;fill-rule:nonzero;stroke:none;stroke-width:0.35277778"
       d="m 67.427404,103.21993 c -0.835025,1.58738 -1.67005,3.17477 -2.505075,4.76215 -0.472134,-1.58738 -0.944269,-3.17477 -1.416403,-4.76215 -0.282506,0.0928 -1.090975,-0.20525 -0.970173,0.18734 0.698158,2.31869 1.396317,4.63737 2.094476,6.95606 1.296694,-2.38113 2.593387,-4.76227 3.890081,-7.1434 -0.364302,0 -0.728604,0 -1.092906,0 z"
       id="path9824" />
    <path
       style="fill:#163f6e;fill-opacity:1;fill-rule:nonzero;stroke:none;stroke-width:0.35277778"
       d="m 73.323026,103.21993 c -0.235258,1.6224 -0.315403,3.27379 -0.683902,4.87155 -0.211404,1.2927 -2.220377,1.59592 -2.779095,0.42206 -0.338137,-0.98262 0.04594,-2.02393 0.101326,-3.02917 0.09221,-0.75482 0.18442,-1.50963 0.27663,-2.26444 -0.314471,0.0984 -0.994369,-0.21624 -1.0328,0.19419 -0.162158,1.5889 -0.469687,3.16909 -0.496498,4.76654 0.166628,2.07607 3.184791,2.68106 4.404329,1.15755 0.856602,-1.17645 0.729984,-2.70645 0.969199,-4.08006 0.08325,-0.67941 0.166503,-1.35881 0.249755,-2.03822 -0.336315,0 -0.672629,0 -1.008944,0 z"
       id="path9822" />
    <path
       style="fill:#163f6e;fill-opacity:1;fill-rule:nonzero;stroke:none;stroke-width:0.35277778"
       d="m 78.535318,103.30843 c -1.226202,-0.70375 -3.080749,0.19638 -3.000728,1.69051 -0.08403,1.1704 1.096643,1.72254 1.922992,2.25707 1.515612,0.894 -0.411276,2.86017 -1.525417,1.64928 -0.314367,-0.76743 -0.710102,-0.56453 -1.219633,-0.12339 0.551827,1.47876 2.806774,1.92866 3.866927,0.71292 0.803007,-0.93381 0.511604,-2.54121 -0.627101,-3.07234 -1.091732,-0.26521 -2.143377,-1.95045 -0.571456,-2.37522 0.849121,-0.32066 1.237326,1.21935 1.794417,0.24028 0.555086,-0.28727 -0.452293,-0.77701 -0.640001,-0.97911 z"
       id="path9144" />
    <path
       style="fill:#2db88f;fill-opacity:1;fill-rule:nonzero;stroke:none;stroke-width:0.35277778"
       d="m 84.777508,103.21993 -2.505075,4.76215 -1.41605,-4.76215 h -1.026936 l 2.150886,7.1434 3.890433,-7.1434 z"
       id="path9840" />
    <path
       style="fill:#2db88f;fill-opacity:1;fill-rule:nonzero;stroke:none;stroke-width:0.35277778"
       d="m 86.579144,103.21993 -0.840669,6.83331 h 1.01353 l 0.84067,-6.83331 z"
       id="path9838" />
    <path
       style="fill:#2db88f;fill-opacity:1;fill-rule:nonzero;stroke:none;stroke-width:1.33333337"
       d="M 165.41016 96.689453 L 151.125 124.35547 L 155.29102 124.35547 L 158.43555 118.2832 L 168.45508 118.2832 L 170.32812 124.35547 L 174.32617 124.35547 L 165.41016 96.689453 z M 164.60742 105.78906 L 167.38477 114.97266 L 160.0918 114.97266 L 164.60742 105.78906 z "
       transform="matrix(0.26458333,0,0,0.26458333,47.687724,77.150707)"
       id="path9836" />
    <path
       style="fill:#2db88f;fill-opacity:1;fill-rule:nonzero;stroke:none;stroke-width:0.35277778"
       d="m 60.172282,114.63077 h 0.372181 l 0.194027,-1.41958 0.754592,1.41958 h 0.331258 l 0.280811,-2.06516 h -0.37853 l -0.191911,1.4037 -0.744714,-1.4037 h -0.338314 z"
       id="path9866" />
    <path
       style="fill:#2db88f;fill-opacity:1;fill-rule:nonzero;stroke:none;stroke-width:0.35277778"
       d="m 62.331282,114.63077 h 1.124655 l 0.04657,-0.36089 H 62.77014 l 0.07585,-0.54751 h 0.72778 l 0.04727,-0.36372 h -0.724605 l 0.05927,-0.42686 h 0.720725 l 0.04763,-0.36618 h -1.110545 z"
       id="path9864" />
    <path
       style="fill:#2db88f;fill-opacity:1;fill-rule:nonzero;stroke:none;stroke-width:0.35277778"
       d="m 64.183365,114.63077 h 0.337961 l 0.645231,-1.36737 0.259997,1.36737 h 0.316795 l 0.730955,-2.06516 h -0.37465 l -0.459669,1.30281 -0.246239,-1.30281 h -0.2921 l -0.631472,1.33773 -0.119945,-1.33773 h -0.353836 z"
       id="path9862" />
    <path
       style="fill:#2db88f;fill-opacity:1;fill-rule:nonzero;stroke:none;stroke-width:0.35277778"
       d="m 68.657293,112.5134 c -0.220133,0 -0.422981,0.0526 -0.6096,0.15804 -0.186267,0.10513 -0.334081,0.24942 -0.442736,0.43251 -0.109361,0.18274 -0.163689,0.37394 -0.163689,0.57326 0,0.18662 0.04621,0.35948 0.138289,0.51894 0.09208,0.15981 0.214136,0.28046 0.366536,0.36301 0.152047,0.0825 0.33655,0.12347 0.553861,0.12347 0.308681,0 0.580672,-0.0825 0.815622,-0.24836 l -0.2286,-0.30197 c -0.158397,0.12558 -0.345369,0.18838 -0.561622,0.18838 -0.202494,0 -0.367947,-0.0621 -0.497064,-0.18592 -0.129469,-0.12417 -0.194028,-0.2794 -0.194028,-0.46672 0,-0.13723 0.03669,-0.2667 0.11042,-0.38841 0.07338,-0.12135 0.176036,-0.21943 0.307975,-0.29316 0.131939,-0.0737 0.270228,-0.11077 0.414514,-0.11077 0.103011,0 0.198261,0.0191 0.286455,0.0568 0.08784,0.0377 0.162278,0.0917 0.222956,0.16192 l 0.282222,-0.26176 c -0.225425,-0.21272 -0.492831,-0.31926 -0.801511,-0.31926"
       id="path9860" />
    <path
       style="fill:#2db88f;fill-opacity:1;fill-rule:nonzero;stroke:none;stroke-width:1.33333337"
       d="M 87.90625 133.6543 C 86.528915 133.6543 85.399626 134.14179 84.515625 135.11914 C 83.722291 135.99648 83.326172 137.04559 83.326172 138.26562 C 83.326172 139.34162 83.658271 140.20985 84.322266 140.86719 C 84.986268 141.52452 85.871755 141.85352 86.982422 141.85352 C 87.870422 141.85352 88.657797 141.66012 89.341797 141.27344 C 90.027131 140.88811 90.574326 140.33719 90.986328 139.61719 C 91.398327 138.89719 91.605469 138.12972 91.605469 137.31641 C 91.605469 136.25504 91.256536 135.38012 90.560547 134.68945 C 89.863213 134.00014 88.978249 133.6543 87.90625 133.6543 z M 87.853516 135.03906 C 88.532183 135.03906 89.081953 135.25365 89.501953 135.68164 C 89.920619 136.10963 90.128906 136.67996 90.128906 137.39062 C 90.128906 138.25062 89.832326 138.98071 89.236328 139.58203 C 88.638996 140.18335 87.9145 140.48438 87.0625 140.48438 C 86.326497 140.48438 85.762472 140.26163 85.369141 139.81641 C 84.977139 139.3711 84.78125 138.82553 84.78125 138.18555 C 84.78125 137.64421 84.922422 137.12129 85.205078 136.61328 C 85.487749 136.10527 85.859599 135.71596 86.322266 135.44531 C 86.783599 135.1747 87.294849 135.03906 87.853516 135.03906 z "
       transform="matrix(0.26458333,0,0,0.26458333,47.687724,77.150707)"
       id="path9858" />
    <path
       style="fill:#2db88f;fill-opacity:1;fill-rule:nonzero;stroke:none;stroke-width:0.35277778"
       d="m 72.192126,114.63077 h 0.372181 l 0.194028,-1.41958 0.754591,1.41958 h 0.330906 l 0.280811,-2.06516 h -0.378178 l -0.191911,1.4037 -0.744714,-1.4037 h -0.338314 z"
       id="path9854" />
    <path
       style="fill:#2db88f;fill-opacity:1;fill-rule:nonzero;stroke:none;stroke-width:0.35277778"
       d="m 75.615834,112.5134 c -0.21978,0 -0.42298,0.0526 -0.609247,0.15804 -0.186266,0.10513 -0.333728,0.24942 -0.443089,0.43251 -0.109008,0.18274 -0.163336,0.37394 -0.163336,0.57326 0,0.18662 0.04586,0.35948 0.138289,0.51894 0.09208,0.15981 0.214136,0.28046 0.366536,0.36301 0.152047,0.0825 0.33655,0.12347 0.553861,0.12347 0.308681,0 0.580673,-0.0825 0.815623,-0.24836 l -0.228953,-0.30197 c -0.158045,0.12558 -0.34537,0.18838 -0.561622,0.18838 -0.202142,0 -0.367948,-0.0621 -0.497064,-0.18592 -0.129117,-0.12417 -0.193675,-0.2794 -0.193675,-0.46672 0,-0.13723 0.03669,-0.2667 0.110066,-0.38841 0.07373,-0.12135 0.176389,-0.21943 0.308328,-0.29316 0.131939,-0.0737 0.269875,-0.11077 0.414161,-0.11077 0.103011,0 0.198614,0.0191 0.286456,0.0568 0.08819,0.0377 0.16263,0.0917 0.223308,0.16192 l 0.282222,-0.26176 c -0.225425,-0.21272 -0.49283,-0.31926 -0.801864,-0.31926"
       id="path9852" />
    <path
       style="fill:#2db88f;fill-opacity:1;fill-rule:nonzero;stroke:none;stroke-width:0.35277778"
       d="m 76.651237,114.63077 h 1.124656 l 0.04692,-0.36089 h -0.732366 l 0.07585,-0.54751 h 0.72778 l 0.04727,-0.36372 H 77.21674 l 0.05927,-0.42686 h 0.720725 l 0.04763,-0.36618 h -1.110898 z"
       id="path9850" />
    <path
       style="fill:#2db88f;fill-opacity:1;fill-rule:nonzero;stroke:none;stroke-width:1.33333337"
       d="M 116.50586 133.85156 L 115.4375 141.65625 L 116.9082 141.65625 L 117.36133 138.36133 C 118.36399 138.34621 119.07972 138.25192 119.51172 138.07617 C 119.94105 137.90156 120.28501 137.62423 120.54102 137.24023 C 120.797 136.85623 120.92578 136.42644 120.92578 135.95312 C 120.92578 135.52112 120.8163 135.1436 120.59766 134.82227 C 120.37897 134.49949 120.05743 134.24838 119.63477 134.06836 C 119.29344 133.92323 118.707 133.85156 117.875 133.85156 L 116.50586 133.85156 z M 117.79492 135.21484 C 118.34426 135.21484 118.71177 135.24106 118.89844 135.28906 C 119.08379 135.33857 119.2237 135.42486 119.31836 135.54883 C 119.41304 135.6728 119.46094 135.82381 119.46094 136.00391 C 119.46094 136.32668 119.33898 136.56975 119.09766 136.73242 C 118.85365 136.89494 118.33568 136.97826 117.54102 136.98242 L 117.79492 135.21484 z "
       transform="matrix(0.26458333,0,0,0.26458333,47.687724,77.150707)"
       id="path9848" />
    <path
       style="fill:#2db88f;fill-opacity:1;fill-rule:nonzero;stroke:none;stroke-width:0.35277778"
       d="m 79.861868,112.93315 h 0.44838 l -0.231775,1.69757 h 0.384881 l 0.231775,-1.69757 h 0.430741 l 0.0448,-0.36759 h -1.260828 z"
       id="path9152" />
    <g
       transform="matrix(0.35277777,0,0,-0.35277777,93.178876,100.03649)"
       id="g9154">
      <path
         inkscape:connector-curvature="0"
         id="path9156"
         style="fill:#163f6e;fill-opacity:1;fill-rule:nonzero;stroke:none"
         d="m 0,0 c -0.84,-0.453 -1.496,-1.1 -1.967,-1.943 -0.472,-0.843 -0.707,-1.722 -0.707,-2.637 0,-0.905 0.232,-1.775 0.696,-2.611 0.464,-0.836 1.113,-1.485 1.947,-1.947 0.833,-0.462 1.705,-0.693 2.615,-0.693 0.91,0 1.782,0.231 2.616,0.693 0.833,0.462 1.481,1.111 1.943,1.947 0.462,0.836 0.693,1.706 0.693,2.611 0,0.915 -0.234,1.794 -0.703,2.637 C 6.664,-1.1 6.009,-0.453 5.168,0 4.328,0.453 3.466,0.679 2.584,0.679 1.702,0.679 0.841,0.453 0,0 M 4.736,-0.759 C 5.437,-1.138 5.984,-1.678 6.377,-2.382 6.769,-3.085 6.965,-3.818 6.965,-4.58 6.965,-5.336 6.772,-6.062 6.387,-6.756 6.002,-7.45 5.461,-7.991 4.765,-8.379 4.068,-8.767 3.341,-8.96 2.584,-8.96 c -0.757,0 -1.483,0.193 -2.18,0.581 -0.696,0.388 -1.238,0.929 -1.626,1.623 -0.388,0.694 -0.582,1.42 -0.582,2.176 0,0.762 0.198,1.495 0.592,2.198 0.395,0.704 0.941,1.244 1.641,1.623 0.698,0.378 1.417,0.568 2.155,0.568 0.734,0 1.451,-0.19 2.152,-0.568 M 1.191,-7.484 v 2.403 h 0.537 c 0.32,0 0.564,-0.065 0.731,-0.195 0.241,-0.177 0.56,-0.615 0.954,-1.316 l 0.502,-0.892 h 1.114 l -0.69,1.108 c -0.329,0.524 -0.608,0.898 -0.835,1.121 -0.121,0.116 -0.281,0.216 -0.481,0.299 0.488,0.038 0.879,0.209 1.174,0.516 0.295,0.306 0.442,0.666 0.442,1.08 0,0.292 -0.088,0.568 -0.264,0.828 -0.177,0.261 -0.414,0.443 -0.711,0.547 -0.297,0.105 -0.778,0.157 -1.442,0.157 H 0.279 v -5.656 z m 0,4.89 h 1.038 c 0.446,0 0.751,-0.033 0.916,-0.098 C 3.31,-2.757 3.438,-2.855 3.532,-2.988 3.625,-3.12 3.671,-3.27 3.671,-3.437 3.671,-3.697 3.574,-3.906 3.382,-4.064 3.189,-4.222 2.828,-4.301 2.299,-4.301 H 1.191 Z" />
    </g>
    <g
       transform="matrix(0.35277777,0,0,-0.35277777,66.574987,89.009613)"
       id="g9158">
      <path
         inkscape:connector-curvature="0"
         id="path9160"
         style="fill:#163f6e;fill-opacity:1;fill-rule:nonzero;stroke:none"
         d="m 0,0 4.796,8.574 9.36,-26.976 15.598,27.906 C 25.187,15.914 17.7,20.098 9.23,20.098 c -13.913,0 -25.191,-11.28 -25.191,-25.193 0,-13.913 11.278,-25.192 25.191,-25.192 0.321,0 0.639,0.012 0.956,0.024 z" />
    </g>
    <g
       transform="matrix(0.35277777,0,0,-0.35277777,72.211352,99.36918)"
       id="g9162">
      <path
         inkscape:connector-curvature="0"
         id="path9164"
         style="fill:#163f6e;fill-opacity:1;fill-rule:nonzero;stroke:none"
         d="m 0,0 c 10.636,2.95 18.446,12.695 18.446,24.271 0,2.316 -0.32,4.556 -0.904,6.686 z" />
    </g>
    <g
       transform="matrix(0.35277777,0,0,-0.35277777,80.508509,77.150707)"
       id="g9166">
      <path
         inkscape:connector-curvature="0"
         id="path9168"
         style="fill:#2db88f;fill-opacity:1;fill-rule:nonzero;stroke:none"
         d="m 0,0 -13.775,-10.668 3.563,-0.397 -12.977,-23.214 -9.379,26.932 -21.768,-38.82 c 0.627,-2.121 1.735,-4.735 3.688,-7.351 l 15.946,28.48 9.361,-26.981 21.069,37.694 2.3,-2.986 z" />
    </g>
    <g
       transform="matrix(0.35277777,0,0,-0.35277777,77.279922,85.284069)"
       id="g9170">
      <path
         inkscape:connector-curvature="0"
         id="path9172"
         style="fill:#ffffff;fill-opacity:1;fill-rule:nonzero;stroke:none"
         d="m 0,0 -16.189,-28.963 -9.359,26.976 -4.797,-8.574 12.155,-36.111 22.268,39.298 C 3.142,-4.583 1.64,-2.054 0,0" />
    </g>
  </g>
</svg>
