<?xml version="1.0" encoding="UTF-8" standalone="no"?>
<!-- Generator: Adobe Illustrator 16.0.0, SVG Export Plug-In . SVG Version: 6.00 Build 0)  -->

<svg
   xmlns:dc="http://purl.org/dc/elements/1.1/"
   xmlns:cc="http://creativecommons.org/ns#"
   xmlns:rdf="http://www.w3.org/1999/02/22-rdf-syntax-ns#"
   xmlns:svg="http://www.w3.org/2000/svg"
   xmlns="http://www.w3.org/2000/svg"
   xmlns:sodipodi="http://sodipodi.sourceforge.net/DTD/sodipodi-0.dtd"
   xmlns:inkscape="http://www.inkscape.org/namespaces/inkscape"
   version="1.1"
   id="Capa_1"
   x="0px"
   y="0px"
   width="44.668171"
   height="56.091637"
   viewBox="0 0 44.668174 56.091639"
   xml:space="preserve"
   sodipodi:docname="map-markerBelgique.svg"
   inkscape:version="0.92.0 r15299"><metadata
     id="metadata4524"><rdf:RDF><cc:Work
         rdf:about=""><dc:format>image/svg+xml</dc:format><dc:type
           rdf:resource="http://purl.org/dc/dcmitype/StillImage" /><dc:title></dc:title></cc:Work></rdf:RDF></metadata><defs
     id="defs4522" /><sodipodi:namedview
     pagecolor="#ffffff"
     bordercolor="#666666"
     borderopacity="1"
     objecttolerance="10"
     gridtolerance="10"
     guidetolerance="10"
     inkscape:pageopacity="0"
     inkscape:pageshadow="2"
     inkscape:window-width="2400"
     inkscape:window-height="1271"
     id="namedview4520"
     showgrid="false"
     inkscape:zoom="30.417116"
     inkscape:cx="22.531343"
     inkscape:cy="10.340889"
     inkscape:window-x="-9"
     inkscape:window-y="-9"
     inkscape:window-maximized="1"
     inkscape:current-layer="Capa_1" /><path
     inkscape:connector-curvature="0"
     id="path4485"
     d="M 22.334085,0 C 10.000562,0 0,9.9988859 0,22.33241 c 0,18.563134 22.334085,33.759228 22.334085,33.759228 0,0 22.334086,-16.313971 22.334086,-33.760904 C 44.668171,9.99721 34.667609,0 22.334085,0 Z m 0,32.976547 c -5.882683,0 -10.649165,-4.766482 -10.649165,-10.645813 0,-5.879332 4.766482,-10.645814 10.649165,-10.645814 5.879332,-0.0017 10.645814,4.768158 10.645814,10.64749 -0.0017,5.879331 -4.766482,10.644137 -10.645814,10.644137 z"
     style="fill:#2dcecc;fill-opacity:1;stroke-width:1.67597818" /><g
     id="g5157"
     transform="matrix(0.42077715,0,0,0.42504691,16.620217,13.960059)"><g
       id="g9158"
       transform="matrix(1.3333333,0,0,-1.3333333,0.61621021,12.505917)"><path
         d="m 0,0 4.796,8.574 9.36,-26.976 15.598,27.906 C 25.187,15.914 17.7,20.098 9.23,20.098 c -13.913,0 -25.191,-11.28 -25.191,-25.193 0,-13.913 11.278,-25.192 25.191,-25.192 0.321,0 0.639,0.012 0.956,0.024 z"
         style="fill:#163f6e;fill-opacity:1;fill-rule:nonzero;stroke:none"
         id="path9160"
         inkscape:connector-curvature="0" /></g><g
       id="g9162"
       transform="matrix(1.3333333,0,0,-1.3333333,21.919007,51.660186)"><path
         d="m 0,0 c 10.636,2.95 18.446,12.695 18.446,24.271 0,2.316 -0.32,4.556 -0.904,6.686 z"
         style="fill:#163f6e;fill-opacity:1;fill-rule:nonzero;stroke:none"
         id="path9164"
         inkscape:connector-curvature="0" /></g><g
       id="g9166"
       transform="matrix(1.3333333,0,0,-1.3333333,53.278339,-32.315145)"><path
         d="m 0,0 -13.775,-10.668 3.563,-0.397 -12.977,-23.214 -9.379,26.932 -21.768,-38.82 c 0.627,-2.121 1.735,-4.735 3.688,-7.351 l 15.946,28.48 9.361,-26.981 21.069,37.694 2.3,-2.986 z"
         style="fill:#2db88f;fill-opacity:1;fill-rule:nonzero;stroke:none"
         id="path9168"
         inkscape:connector-curvature="0" /></g><g
       id="g9170"
       transform="matrix(1.3333333,0,0,-1.3333333,41.075809,-1.5748793)"><path
         d="m 0,0 -16.189,-28.963 -9.359,26.976 -4.797,-8.574 12.155,-36.111 22.268,39.298 C 3.142,-4.583 1.64,-2.054 0,0"
         style="fill:#ffffff;fill-opacity:1;fill-rule:nonzero;stroke:none"
         id="path9172"
         inkscape:connector-curvature="0" /></g></g></svg>