<?xml version="1.0" encoding="UTF-8" standalone="no"?>
<!-- Generator: Adobe Illustrator 16.0.0, SVG Export Plug-In . SVG Version: 6.00 Build 0)  -->

<svg
   xmlns:dc="http://purl.org/dc/elements/1.1/"
   xmlns:cc="http://creativecommons.org/ns#"
   xmlns:rdf="http://www.w3.org/1999/02/22-rdf-syntax-ns#"
   xmlns:svg="http://www.w3.org/2000/svg"
   xmlns="http://www.w3.org/2000/svg"
   xmlns:sodipodi="http://sodipodi.sourceforge.net/DTD/sodipodi-0.dtd"
   xmlns:inkscape="http://www.inkscape.org/namespaces/inkscape"
   version="1.1"
   id="Capa_1"
   x="0px"
   y="0px"
   width="44.668171"
   height="56.091637"
   viewBox="0 0 44.668174 56.091639"
   xml:space="preserve"
   sodipodi:docname="map-markerQatar.svg"
   inkscape:version="0.92.0 r15299"><metadata
     id="metadata4524"><rdf:RDF><cc:Work
         rdf:about=""><dc:format>image/svg+xml</dc:format><dc:type
           rdf:resource="http://purl.org/dc/dcmitype/StillImage" /><dc:title></dc:title></cc:Work></rdf:RDF></metadata><defs
     id="defs4522" /><sodipodi:namedview
     pagecolor="#ffffff"
     bordercolor="#666666"
     borderopacity="1"
     objecttolerance="10"
     gridtolerance="10"
     guidetolerance="10"
     inkscape:pageopacity="0"
     inkscape:pageshadow="2"
     inkscape:window-width="2400"
     inkscape:window-height="1271"
     id="namedview4520"
     showgrid="false"
     inkscape:zoom="30.417116"
     inkscape:cx="22.531343"
     inkscape:cy="5.5358854"
     inkscape:window-x="-9"
     inkscape:window-y="-9"
     inkscape:window-maximized="1"
     inkscape:current-layer="Capa_1" /><g
     id="g5235"
     transform="scale(1.6759782)"><path
       style="fill:#1171ef;fill-opacity:1"
       d="M 13.326,0 C 5.967,0 0,5.966 0,13.325 c 0,11.076 13.326,20.143 13.326,20.143 0,0 13.326,-9.734 13.326,-20.144 C 26.652,5.965 20.685,0 13.326,0 Z m 0,19.676 c -3.51,0 -6.354,-2.844 -6.354,-6.352 0,-3.508 2.844,-6.352 6.354,-6.352 3.508,-0.001 6.352,2.845 6.352,6.353 -0.001,3.508 -2.844,6.351 -6.352,6.351 z"
       id="path4485"
       inkscape:connector-curvature="0" /><g
       transform="matrix(0.25106362,0,0,0.25361124,9.9167263,8.3294994)"
       id="g5157"><g
         transform="matrix(1.3333333,0,0,-1.3333333,0.61621021,12.505917)"
         id="g9158"><path
           inkscape:connector-curvature="0"
           id="path9160"
           style="fill:#163f6e;fill-opacity:1;fill-rule:nonzero;stroke:none"
           d="m 0,0 4.796,8.574 9.36,-26.976 15.598,27.906 C 25.187,15.914 17.7,20.098 9.23,20.098 c -13.913,0 -25.191,-11.28 -25.191,-25.193 0,-13.913 11.278,-25.192 25.191,-25.192 0.321,0 0.639,0.012 0.956,0.024 z" /></g><g
         transform="matrix(1.3333333,0,0,-1.3333333,21.919007,51.660186)"
         id="g9162"><path
           inkscape:connector-curvature="0"
           id="path9164"
           style="fill:#163f6e;fill-opacity:1;fill-rule:nonzero;stroke:none"
           d="m 0,0 c 10.636,2.95 18.446,12.695 18.446,24.271 0,2.316 -0.32,4.556 -0.904,6.686 z" /></g><g
         transform="matrix(1.3333333,0,0,-1.3333333,53.278339,-32.315145)"
         id="g9166"><path
           inkscape:connector-curvature="0"
           id="path9168"
           style="fill:#2db88f;fill-opacity:1;fill-rule:nonzero;stroke:none"
           d="m 0,0 -13.775,-10.668 3.563,-0.397 -12.977,-23.214 -9.379,26.932 -21.768,-38.82 c 0.627,-2.121 1.735,-4.735 3.688,-7.351 l 15.946,28.48 9.361,-26.981 21.069,37.694 2.3,-2.986 z" /></g><g
         transform="matrix(1.3333333,0,0,-1.3333333,41.075809,-1.5748793)"
         id="g9170"><path
           inkscape:connector-curvature="0"
           id="path9172"
           style="fill:#ffffff;fill-opacity:1;fill-rule:nonzero;stroke:none"
           d="m 0,0 -16.189,-28.963 -9.359,26.976 -4.797,-8.574 12.155,-36.111 22.268,39.298 C 3.142,-4.583 1.64,-2.054 0,0" /></g></g></g></svg>