<svg width="960" height="850" xmlns="http://www.w3.org/2000/svg">
 <defs>
  <linearGradient y2="0.500002" x2="1.000001" y1="0.500002" x1="-0.000001" id="b629f179-8ab2-4411-a7df-956765958247">
   <stop stop-opacity="0.25" stop-color="gray" offset="0"/>
   <stop stop-opacity="0.12" stop-color="gray" offset="0.53514"/>
   <stop stop-opacity="0.1" stop-color="gray" offset="1"/>
  </linearGradient>
 </defs>
 <title>Security on</title>
 <g>
  <title>background</title>
  <rect fill="none" id="canvas_background" height="852" width="962" y="-1" x="-1"/>
 </g>
 <g>
  <title>Layer 1</title>
  <path id="svg_1" fill="#3f3d56" d="m431.399175,10.746311l-269.70206,165.97049s0,342.31415 269.70206,529.031c269.70205,-186.7168 269.70205,-529.031 269.70205,-529.031l-269.70205,-165.97049z"/>
  <path id="svg_2" opacity="0.04" fill="#2eb58f" d="m433.009465,10.746311l-4.61029,2.83711l0,688.92673c1.531,1.08244 3.06152,2.16537 4.61029,3.2376c269.70205,-186.7168 269.70205,-529.031 269.70205,-529.031l-269.70205,-165.97044z"/>
  <g id="svg_3" opacity="0.7">
   <polygon id="svg_4" fill="url(#b629f179-8ab2-4411-a7df-956765958247)" points="366.106 347.068 416.949 393.674 479.977 302.75 505.399 323.935 416.949 436.044 344.921 355.542 366.106 347.068"/>
  </g>
  <polygon id="svg_5" fill="#3ad29f" points="378.106 349.868 419.349 387.674 477.777 301.75 498.399 318.935 419.349 422.044 360.921 356.742 378.106 349.868"/>
  <path id="svg_6" opacity="0.5" fill="#4d8af0" d="m165.289665,47.956311a3.67459,3.67459 0 0 1 -2.04748,-4.441a1.766,1.766 0 0 0 0.0799,-0.40754l0,0a1.84257,1.84257 0 0 0 -3.31045,-1.22119l0,0a1.7661,1.7661 0 0 0 -0.2039,0.3618a3.67461,3.67461 0 0 1 -4.441,2.04749a1.766,1.766 0 0 0 -0.40754,-0.07991l0,0a1.84257,1.84257 0 0 0 -1.22119,3.31045l0,0a1.76564,1.76564 0 0 0 0.3618,0.2039a3.67459,3.67459 0 0 1 2.04748,4.441a1.76611,1.76611 0 0 0 -0.0799,0.40755l0,0a1.84257,1.84257 0 0 0 3.31045,1.22119l0,0a1.76637,1.76637 0 0 0 0.2039,-0.3618a3.67459,3.67459 0 0 1 4.441,-2.04749a1.766,1.766 0 0 0 0.40754,0.0799l0,0a1.84257,1.84257 0 0 0 1.22119,-3.31044l0,0a1.7661,1.7661 0 0 0 -0.3618,-0.20391z"/>
  <path id="svg_7" opacity="0.5" fill="#4d8af0" d="m19.289665,372.956311a3.67459,3.67459 0 0 1 -2.04748,-4.441a1.766,1.766 0 0 0 0.0799,-0.40754l0,0a1.84257,1.84257 0 0 0 -3.31045,-1.22119l0,0a1.7661,1.7661 0 0 0 -0.2039,0.3618a3.67461,3.67461 0 0 1 -4.441,2.04749a1.766,1.766 0 0 0 -0.40754,-0.07991l0,0a1.84257,1.84257 0 0 0 -1.22119,3.31045l0,0a1.76564,1.76564 0 0 0 0.3618,0.2039a3.67459,3.67459 0 0 1 2.04748,4.441a1.76611,1.76611 0 0 0 -0.0799,0.40755l0,0a1.84257,1.84257 0 0 0 3.31045,1.22119l0,0a1.76637,1.76637 0 0 0 0.2039,-0.3618a3.67459,3.67459 0 0 1 4.441,-2.04749a1.766,1.766 0 0 0 0.40754,0.0799l0,0a1.84257,1.84257 0 0 0 1.22119,-3.31044l0,0a1.7661,1.7661 0 0 0 -0.3618,-0.20391z"/>
  <circle id="svg_8" opacity="0.5" fill="#f55f44" r="6" cy="254" cx="748.39917"/>
  <circle id="svg_9" opacity="0.5" fill="#f55f44" r="6" cy="683" cx="121.39917"/>
  <circle id="svg_10" opacity="0.5" fill="#f55f44" r="6" cy="485" cx="850.39917"/>
  <path id="svg_11" opacity="0.5" fill="#4d8af0" d="m704.289665,76.956311a3.67459,3.67459 0 0 1 -2.04748,-4.441a1.766,1.766 0 0 0 0.0799,-0.40754l0,0a1.84257,1.84257 0 0 0 -3.31045,-1.22119l0,0a1.7661,1.7661 0 0 0 -0.2039,0.3618a3.67461,3.67461 0 0 1 -4.441,2.04749a1.766,1.766 0 0 0 -0.40754,-0.07991l0,0a1.84257,1.84257 0 0 0 -1.22119,3.31045l0,0a1.76564,1.76564 0 0 0 0.3618,0.2039a3.67459,3.67459 0 0 1 2.04748,4.441a1.76611,1.76611 0 0 0 -0.0799,0.40755l0,0a1.84257,1.84257 0 0 0 3.31045,1.22119l0,0a1.76637,1.76637 0 0 0 0.2039,-0.3618a3.67459,3.67459 0 0 1 4.441,-2.04749a1.766,1.766 0 0 0 0.40754,0.0799l0,0a1.84257,1.84257 0 0 0 1.22119,-3.31044l0,0a1.7661,1.7661 0 0 0 -0.3618,-0.20391z"/>
  <path id="svg_12" opacity="0.5" fill="#4d8af0" d="m804.289665,704.956311a3.67459,3.67459 0 0 1 -2.04748,-4.441a1.766,1.766 0 0 0 0.0799,-0.40754l0,0a1.84257,1.84257 0 0 0 -3.31045,-1.22119l0,0a1.7661,1.7661 0 0 0 -0.2039,0.3618a3.67461,3.67461 0 0 1 -4.441,2.04749a1.766,1.766 0 0 0 -0.40754,-0.07991l0,0a1.84257,1.84257 0 0 0 -1.22119,3.31045l0,0a1.76564,1.76564 0 0 0 0.3618,0.2039a3.67459,3.67459 0 0 1 2.04748,4.441a1.76611,1.76611 0 0 0 -0.0799,0.40755l0,0a1.84257,1.84257 0 0 0 3.31045,1.22119l0,0a1.76637,1.76637 0 0 0 0.2039,-0.3618a3.67459,3.67459 0 0 1 4.441,-2.04749a1.766,1.766 0 0 0 0.40754,0.0799l0,0a1.84257,1.84257 0 0 0 1.22119,-3.31044l0,0a1.7661,1.7661 0 0 0 -0.3618,-0.20391z"/>
  <path id="svg_13" opacity="0.5" fill="#4d8af0" d="m12.289665,182.956311a3.67459,3.67459 0 0 1 -2.04748,-4.441a1.766,1.766 0 0 0 0.0799,-0.40754l0,0a1.84257,1.84257 0 0 0 -3.31045,-1.22119l0,0a1.7661,1.7661 0 0 0 -0.2039,0.3618a3.67461,3.67461 0 0 1 -4.441,2.04749a1.766,1.766 0 0 0 -0.40754,-0.07991l0,0a1.84257,1.84257 0 0 0 -1.22119,3.31045l0,0a1.76564,1.76564 0 0 0 0.3618,0.2039a3.67459,3.67459 0 0 1 2.04748,4.441a1.76611,1.76611 0 0 0 -0.0799,0.40755l0,0a1.84257,1.84257 0 0 0 3.31045,1.22119l0,0a1.76637,1.76637 0 0 0 0.2039,-0.3618a3.67459,3.67459 0 0 1 4.441,-2.04749a1.766,1.766 0 0 0 0.40754,0.0799l0,0a1.84257,1.84257 0 0 0 1.22119,-3.31044l0,0a1.7661,1.7661 0 0 0 -0.3618,-0.20391z"/>
  <circle id="svg_14" opacity="0.5" fill="#47e6b1" r="6" cy="284" cx="79.39917"/>
  <circle id="svg_15" opacity="0.5" fill="#47e6b1" r="6" cy="332" cx="853.39917"/>
  <g id="svg_16" opacity="0.5">
   <rect id="svg_17" fill="#47e6b1" height="17" width="3" x="583.39917"/>
   <rect id="svg_18" fill="#47e6b1" transform="rotate(90 659.5072631835939,-746.6995849609375) " height="17" width="3" y="-680.591475" x="1413.206853"/>
  </g>
  <g id="svg_19" opacity="0.5">
   <rect id="svg_20" fill="#47e6b1" height="17" width="3" y="666" x="594.39917"/>
   <rect id="svg_21" fill="#47e6b1" transform="rotate(90 1336.5073242187502,-91.69959259033193) " height="17" width="3" y="640.408517" x="2101.206914"/>
  </g>
  <g id="svg_22" opacity="0.5">
   <rect id="svg_23" fill="#47e6b1" height="17" width="3" y="702" x="26.39917"/>
   <rect id="svg_24" fill="#47e6b1" transform="rotate(90 804.5072631835938,512.3004150390626) " height="17" width="3" y="1280.408525" x="1001.206853"/>
  </g>
  <g id="svg_25" opacity="0.5">
   <rect id="svg_26" fill="#47e6b1" height="17" width="3" y="396" x="709.39917"/>
   <rect id="svg_27" fill="#47e6b1" transform="rotate(90 1181.5073242187502,-476.69958496093744) " height="17" width="3" y="-14.591475" x="2061.206914"/>
  </g>
  <polygon id="svg_28" opacity="0.5" fill="#47e6b1" points="795.606 123.018 802.049 128.924 811.177 115.5 814.399 118.185 802.049 134.294 792.921 124.092 795.606 123.018"/>
  <rect id="svg_29" fill="#2eb58f" transform="rotate(-2.220710039138794 -182.12457275390625,-35.97628021240203) " height="28.59727" width="22.24232" y="269.82375" x="578.165237"/>
  <path id="svg_30" fill="#ffb9b9" d="m511.409675,339.350451s-30.779,-14.70576 -30.28646,-2.00541s31.02521,21.05594 31.02521,21.05594l-0.73875,-19.05053z"/>
  <path id="svg_31" fill="#2eb58f" d="m528.296245,446.810951s-14.52107,35.54159 -19.88626,61.18854s-13.53608,60.94229 -3.02582,85.97362s40.39191,98.59935 40.69972,106.53707s-2.55946,15.99856 3.79071,15.75231s40.90677,-11.12587 42.30963,-15.95007s-11.79,-17.03205 -11.79,-17.03205l-32.57731,-102.08224l33.98947,-66.50524l24.51648,99.215l4.80184,123.82844s23.56691,-7.27361 26.98824,-1.04656c0,0 10.55875,-14.71883 11.9,-21.13057s-4.98653,-128.59106 -4.98653,-128.59106s21.63236,-139.16288 4.16937,-138.4857s-85.86352,-41.18847 -120.89954,-1.67149z"/>
  <path id="svg_32" fill="#575a89" d="m549.628355,709.912321s-16.10862,35.60315 -17.63461,37.25225s-12.02317,17.95548 -4.08545,17.64767s26.68044,-8.98427 40.47584,-22.23868s31.98406,-36.21877 30.335,-37.74475s-12.9466,-5.85768 -12.9466,-5.85768l-36.14418,10.94119z"/>
  <path id="svg_33" fill="#575a89" d="m613.991975,729.675451s-0.97192,15.937 -3.90076,22.4103s-2.55947,15.99857 5.37825,15.69076s28.45267,-4.28321 28.45267,-4.28321s1.21817,-9.58682 -0.43093,-11.11281s-8.67647,-18.74271 -5.68607,-23.62847s-23.81316,0.92343 -23.81316,0.92343z"/>
  <path id="svg_34" fill="#ffb9b9" d="m625.735195,212.492411s16.922,26.37263 23.51842,32.47656s-11.9616,19.543 -11.9616,19.543l-33.2153,4.46789s0.41786,-30.22489 -1.29281,-33.33842s22.95129,-23.14903 22.95129,-23.14903z"/>
  <path id="svg_35" fill="#2eb58f" d="m596.864665,247.000521s6.84267,12.4541 13.19285,12.20785s39.1961,-14.2394 40.599,-19.06359s10.87963,34.55659 10.87963,34.55659l-80.37156,141.44068l-19.60455,-13.54916l9.49913,-83.04479l7.80153,-44.8206l18.00397,-27.72698z"/>
  <path id="svg_36" fill="#575a89" d="m653.620975,373.584041c-3.206,6.70666 -5.20835,13.70047 -4.9307,20.86031c0.01231,0.31753 0.02462,0.635 0.05282,0.95187c0.76057,14.69329 6.17341,31.68646 8.11534,44.04443c1.40908,8.86485 1.00808,15.33551 -4.1797,16.85636c-12.57723,3.66758 1.83379,6.28861 -46.826,22.48493s-57.15159,2.21623 -57.27471,-0.95886s6.89116,-27.29605 5.24206,-28.822s-23.07442,19.974 -29.54772,17.04512s-0.73874,-19.05053 -0.73874,-19.05053s14.58264,-33.954 14.27483,-41.89176s22.08942,-45.37466 22.08942,-45.37466l15.23371,-99.16651s5.85768,-12.9466 13.73384,-14.842s14.411,2.621 14.411,2.621l-13.17984,29.12992l-13.90546,51.417l2.32629,18.989s16.17018,-34.01561 26.7905,-47.1469s33.26379,-44.21805 33.26379,-44.21805s5.28646,-17.83738 1.2957,-23.16791c-3.99136,-5.34632 16.64671,-6.14662 25.4463,15.77118c4.66382,11.61641 12.23581,28.93925 16.97922,45.068c4.22682,14.28851 6.22343,27.646 2.03588,35.2811c-6.40022,11.66391 -22.50002,26.99509 -30.70783,44.11896z"/>
  <path id="svg_37" opacity="0.1" d="m684.328845,329.465101c-6.40029,11.66389 -22.50006,26.99507 -30.70787,44.11894c-2.14378,-7.72348 -4.75909,-15.71476 -4.75909,-15.71476s-10.03082,-53.66869 19.64,-67.53872a19.85766,19.85766 0 0 1 13.79106,3.85344c4.22684,14.28851 6.22345,27.64602 2.0359,35.2811z"/>
  <path id="svg_38" fill="#575a89" d="m566.542785,326.082971l-25.15446,7.33517l-34.926,1.35437l-3.593,30.348l57.39783,4.13394s14.33643,-40.3042 6.27563,-43.17148z"/>
  <path id="svg_39" fill="#ffb9b9" d="m607.560585,428.122551s-33.65163,5.58313 -25.971,15.70981s37.49194,-0.5198 37.49194,-0.5198l-11.52094,-15.19001z"/>
  <path id="svg_40" opacity="0.1" d="m648.743095,395.396221c0.76057,14.69329 6.17341,31.68646 8.11534,44.04443c-10.72016,10.14608 -20.91438,19.09523 -24.75621,19.24421c-7.93772,0.30781 -20.69963,-0.78724 -25.4007,0.985s-7.4583,-28.32954 -7.4583,-28.32954s2.80572,-9.64843 15.32136,-14.90353c8.44783,-3.5552 24.641,-13.19802 34.17851,-21.04057z"/>
  <path id="svg_41" fill="#575a89" d="m668.132525,280.805301s26.86513,-4.22164 25.41378,40.35271s2.83185,73.027 -7.97315,81.39568s-45.90258,46.29809 -53.8403,46.6059s-20.69964,-0.78723 -25.40071,0.985s-7.45829,-28.32955 -7.45829,-28.32955s2.80572,-9.64839 15.32138,-14.90351s42.00182,-23.8878 41.75558,-30.238s-7.4583,-28.32954 -7.4583,-28.32954s-10.03083,-53.66866 19.64001,-67.53869z"/>
  <circle id="svg_42" fill="#ffb9b9" r="34.95222" cy="216.59094" cx="602.04517"/>
  <path id="svg_43" fill="#2f2e41" d="m578.510955,166.494231a6.749,6.749 0 0 1 -2.93882,1.47479a2.09717,2.09717 0 0 1 -2.43029,-1.68345c-0.79968,1.65841 -1.70192,3.42592 -3.33461,4.27688s-4.15732,0.13741 -4.39266,-1.68864a7.706,7.706 0 0 1 -1.77364,3.74392c-1.013,0.96584 -2.85,1.20961 -3.73439,0.12482c0.715,3.90745 0.27369,7.92586 0.49823,11.89184s1.2821,8.1705 4.27847,10.7784c4.36987,3.80334 10.94108,2.86467 16.68929,2.1441a5.06575,5.06575 0 0 1 2.61539,0.14308c2.15231,0.917 2.05467,3.9131 2.08369,6.25242a17.37277,17.37277 0 0 0 15.21221,16.4975a8.70861,8.70861 0 0 0 6.47244,-1.57965c1.63206,-1.38335 2.46572,-3.638 4.33585,-4.67723c3.04207,-1.6904 6.73153,0.77486 8.95568,3.45157s4.4162,5.96934 7.86172,6.45932c4.55691,0.648 8.02766,-3.996 9.73047,-8.27217a48.223,48.223 0 0 0 -0.95837,-37.46977c-9.51494,-20.74107 -42.01821,-24.02168 -59.17066,-11.86773z"/>
 </g>
</svg>