<svg width="960" height="850" xmlns="http://www.w3.org/2000/svg">
 <title>project_completed</title>

 <g>
  <title>background</title>
  <rect fill="none" id="canvas_background" height="852" width="962" y="-1" x="-1"/>
 </g>
 <g>
  <title>Layer 1</title>
  <rect id="svg_1" fill="#3f3d56" height="2.24072" width="963.50956" y="719.52637"/>
  <path id="svg_2" fill="#ffb8b8" d="m604.524664,335.810461s-43.21728,33.95643 -21.60864,41.6738s35.4999,-27.78253 35.4999,-27.78253l-13.89126,-13.89127z"/>
  <path id="svg_3" fill="#cfcce0" d="m606.068134,323.462671l-9.26085,15.43474s15.43475,0 18.52169,23.15211l12.3478,-15.43474l-21.60864,-23.15211z"/>
  <polygon id="svg_4" fill="#ffb8b8" points="811.35 675.375 812.894 721.679 794.372 732.483 786.655 727.853 788.198 675.375 811.35 675.375"/>
  <path id="svg_5" fill="#ffb8b8" d="m701.763534,663.026971l3.08694,49.39118l-43.21727,18.52169l3.087,-26.23906s12.34779,-20.06517 9.26084,-41.67381l27.78249,0z"/>
  <path id="svg_6" fill="#2f2e41" d="m768.132914,291.049711s24.69559,64.82591 29.326,104.95624s12.3478,146.63 12.3478,146.63l15.43475,137.36925l-43.21728,6.1739l-18.52169,-138.91269l-41.6738,-137.36921l-9.26085,137.36919l-7.71737,125.02141l-40.13032,1.54347l-3.087,-129.65182l-16.97817,-165.15172l9.26085,-78.71718l114.21708,-9.26084z"/>
  <path id="svg_7" fill="#2f2e41" d="m791.285034,724.765941s2.53155,-25.92279 21.33093,-11.41792l3.36465,-2.47335l15.43474,33.95643s18.52169,26.23906 -13.89126,29.326s-29.326,-29.326 -29.326,-29.326l-3.087,-13.89126l1.54347,-9.09678l4.63047,2.92288z"/>
  <path id="svg_8" fill="#2f2e41" d="m701.763534,693.896461a24.52083,24.52083 0 0 1 12.34779,21.60864c0,15.43474 -1.54348,16.97821 -1.54348,16.97821l-23.15206,6.17389s-15.43474,-1.54348 -24.69558,7.71737s-55.56507,15.43474 -55.56507,3.087s38.58685,-32.413 38.58685,-32.413s11.45915,-19.35216 19.62084,-17.39345s11.24864,5.04566 11.24864,6.58913s-4.63042,12.34779 -4.63042,12.34779s26.23901,-6.17384 27.78249,-24.69558z"/>
  <circle id="svg_9" fill="#ffb8b8" r="38.58685" cy="62.61553" cx="698.67658"/>
  <path id="svg_10" fill="#ffb8b8" d="m727.230854,72.648121l16.97821,38.58685l-46.30422,66.36939s-3.087,-72.54329 -12.34779,-84.89108s41.6738,-20.06516 41.6738,-20.06516z"/>
  <polygon id="svg_11" fill="#cfcce0" points="705.622 152.909 713.34 132.844 719.513 134.387 727.231 128.213 738.035 94.257 753.47 105.061 773.535 307.256 648.514 310.343 665.492 169.887 680.927 129.757 692.068 115.028 699.448 137.474 705.622 152.909"/>
  <path id="svg_12" fill="#575a89" d="m741.122124,239.343321l4.723,-139.6196s9.16826,0.70693 12.25521,5.33735s54.0216,13.89127 54.0216,13.89127l-9.26085,143.5431s38.58685,114.21708 24.69559,120.391s-38.58686,4.63042 -38.58686,4.63042l-47.84769,-148.17354z"/>
  <path id="svg_13" fill="#575a89" d="m666.263624,221.593371l16.3736,-94.09812l-36.43876,24.64179l9.26084,67.91286l-7.71737,46.30422s-29.32601,128.10836 -20.06515,132.73878s20.06516,0 20.06516,0l18.52169,-129.65183l-0.00001,-47.8477z"/>
  <path id="svg_14" fill="#575a89" d="m657.002784,149.050091l-10.80432,3.087l-4.63043,61.739l-7.71737,54.0216l-37.04338,66.36929s18.52169,-12.34779 26.23906,23.15212l40.79561,-71.02631l-6.83917,-137.3427z"/>
  <path id="svg_15" fill="#ffb8b8" d="m777.393784,323.462671s-43.21728,33.95643 -21.60864,41.6738s35.49991,-27.78254 35.49991,-27.78254l-13.89127,-13.89126z"/>
  <polygon id="svg_16" fill="#cfcce0" points="803.633 340.441 789.742 357.419 771.22 325.006 778.937 311.115 803.633 340.441"/>
  <path id="svg_17" fill="#575a89" d="m800.545874,124.354501l12.34779,-6.17389s9.26085,12.34779 10.80432,23.15211s9.26085,24.69558 9.26085,32.41295s21.60864,80.26066 21.60864,80.26066l-49.39118,100.32587s-10.80432,-37.04338 -33.95643,-40.13033l38.58686,-54.02167l-21.60864,-38.58683l12.34779,-97.23887z"/>
  <path id="svg_18" fill="#2f2e41" d="m730.979634,25.850551l7.27645,-2.91308s-15.2143,-16.75014 -36.3823,-15.29354l5.95362,-6.55447s-14.55289,-5.82608 -27.78277,9.46746c-6.9547,8.03946 -15.00135,17.48947 -20.01758,28.13477l-7.79257,0l3.25232,7.16125l-11.38316,7.16126l11.68369,-1.28631a40.01794,40.01794 0 0 0 -0.31706,11.87827a15.36888,15.36888 0 0 0 5.62792,10.054l0,0s9.02412,-18.67905 9.02412,-21.59213l0,7.28268s7.27644,-6.55438 7.27644,-10.92395l3.96893,5.09787l1.98446,-8.011l24.47525,8.011l-3.96893,-6.55438l15.21435,2.18479l-5.95362,-8.011s17.1988,9.46746 17.86044,17.47844c0.66142,8.01086 5.69558,15.60167 5.69558,15.60167s13.48774,-37.44965 -5.69558,-48.3736z"/>
  <ellipse id="svg_19" fill="#ffb8b8" ry="5.40216" rx="4.32173" cy="56.44164" cx="730.3178"/>
  <polygon id="svg_20" fill="#2eb58f" points="178.601 318.118 45.361 318.118 45.361 280.782 114.91 280.782 178.601 318.118"/>
  <path id="svg_21" fill="#3f3d56" d="m44.995104,312.993611l0,109.08133l432.66488,0l0,-109.08133l-432.66488,0zm168.74668,90.77909l-140.56123,0l0,-15.37388l140.56123,0l0,15.37388zm235.73276,-28.5515l-376.294,0l0,-15.37387l376.294,0l0,15.37387zm0,-43.92536l-376.294,0l0,0l376.294,0z"/>
  <polygon id="svg_22" fill="#2eb58f" points="178.601 141.685 45.361 141.685 45.361 104.348 114.91 104.348 178.601 141.685"/>
  <path id="svg_23" fill="#3f3d56" d="m44.995104,138.756311l0,109.08133l432.66488,0l0,-109.08133l-432.66488,0zm168.74668,90.7791l-140.56123,0l0,-15.37388l140.56123,0l0,15.37388zm81.26193,-43.92537l-221.82316,0l0,0l221.82311,0l0.00005,0zm154.47088,-28.55149l-376.294,0l0,0l376.294,0z"/>
  <polygon id="svg_24" fill="#2eb58f" points="178.601 490.891 45.361 490.891 45.361 453.555 114.91 453.555 178.601 490.891"/>
  <path id="svg_25" fill="#3f3d56" d="m44.995104,483.570451l0,109.08134l432.66488,0l0,-109.08134l-432.66488,0zm682.67344,90.7791l-654.48799,0l0,-15.37388l221.82311,0l432.66488,15.37388zm0,-28.55149l-654.48799,0l0,-15.37386l221.82311,0l432.66488,15.37386zm154.47088,-28.55149l-376.294,0l0,-15.37388l376.294,0l0,15.37388z"/>
  <polygon id="svg_26" fill="#3f3d56" points="600.285 223.679 538.789 223.679 538.789 162.183 580.519 162.183 580.519 163.647 540.254 163.647 540.254 222.215 598.821 222.215 598.821 192.931 600.285 192.931 600.285 223.679"/>
  <path id="svg_27" fill="#2eb58f" d="m569.220504,207.638491c-1.4211,-4.19614 -19.242,-18.45992 -8.3218,-20.8574l8.95523,11.94078l41.17216,-41.17145l4.14089,4.14088l-45.94648,45.94719z"/>
  <polygon id="svg_28" fill="#3f3d56" points="600.285 397.916 538.789 397.916 538.789 336.42 580.519 336.42 580.519 337.885 540.254 337.885 540.254 396.452 598.821 396.452 598.821 367.168 600.285 367.168 600.285 397.916"/>
  <path id="svg_29" fill="#2eb58f" d="m569.220504,381.875791c-1.4211,-4.19614 -19.242,-18.45992 -8.3218,-20.8574l8.95523,11.94078l41.17216,-41.17145l4.14089,4.14088l-45.94648,45.94719z"/>
  <polygon id="svg_30" fill="#3f3d56" points="600.285 571.421 538.789 571.421 538.789 509.926 580.519 509.926 580.519 511.39 540.254 511.39 540.254 569.957 598.821 569.957 598.821 540.673 600.285 540.673 600.285 571.421"/>
  <path id="svg_31" fill="#2eb58f" d="m569.220504,555.381001c-1.4211,-4.19614 -19.242,-18.45993 -8.3218,-20.8574l8.95523,11.94078l41.17216,-41.17146l4.14089,4.14088l-45.94648,45.9472z"/>
 </g>
</svg>